<svg width="20" height="15" viewBox="0 0 20 15" fill="none" xmlns="http://www.w3.org/2000/svg">
<g clip-path="url(#clip0_194_37)">
<path fill-rule="evenodd" clip-rule="evenodd" d="M9.87398 5C9.42994 6.72523 7.86384 8 6 8C4.13616 8 2.57006 6.72523 2.12602 5H0V3H2.12602C2.57006 1.27477 4.13616 0 6 0C7.86384 0 9.42994 1.27477 9.87398 3H20V5H9.87398ZM8 4C8 5.10457 7.10457 6 6 6C4.89543 6 4 5.10457 4 4C4 2.89543 4.89543 2 6 2C7.10457 2 8 2.89543 8 4Z" fill="black"/>
<path fill-rule="evenodd" clip-rule="evenodd" d="M10.126 10C10.5701 8.27477 12.1362 7 14 7C15.8638 7 17.4299 8.27477 17.874 10L20 10L20 12L17.874 12C17.4299 13.7252 15.8638 15 14 15C12.1362 15 10.5701 13.7252 10.126 12L2.62268e-07 12L4.37114e-07 10L10.126 10ZM12 11C12 9.89543 12.8954 9 14 9C15.1046 9 16 9.89543 16 11C16 12.1046 15.1046 13 14 13C12.8954 13 12 12.1046 12 11Z" fill="black"/>
</g>
<defs>
<clipPath id="clip0_194_37">
<rect width="20" height="15" fill="white"/>
</clipPath>
</defs>
</svg>
