<svg width="24" height="24" viewBox="0 0 24 24" xmlns="http://www.w3.org/2000/svg">
<path fill-rule="evenodd" clip-rule="evenodd" d="M11.6796 4.4375H11.5702L10.2577 4.71094C9.01814 4.96615 7.99732 5.61328 7.19523 6.65235C6.39314 7.69141 5.99211 8.86718 5.99211 10.1797V17.125L5.49992 17.6718L5.06242 18.1093H18.1874L17.7499 17.6718L17.2577 17.125V10.1797C17.2577 8.86718 16.8567 7.69141 16.0546 6.65235C15.2525 5.61328 14.2317 4.96615 12.9921 4.71094C12.3723 4.52865 11.9348 4.4375 11.6796 4.4375ZM10.3672 0.992187C10.6953 0.66406 11.1146 0.5 11.625 0.5C12.1354 0.5 12.5456 0.66406 12.8555 0.992187C13.1654 1.32032 13.3203 1.72135 13.3203 2.19531V3.01563C14.9609 3.41667 16.319 4.28255 17.3945 5.61328C18.4701 6.94402 19.0078 8.46614 19.0078 10.1797V16.414L21.25 18.7109V19.8593H2V18.7109L4.24219 16.414V10.1797C4.24219 8.46614 4.77994 6.94402 5.85547 5.61328C6.931 4.28255 8.28905 3.41667 9.92969 3.01563V2.19531C9.92969 1.72135 10.0755 1.32032 10.3672 0.992187ZM13.8671 20.9531C13.8671 21.5729 13.6484 22.1106 13.2109 22.5664C12.7734 23.0221 12.2447 23.25 11.6249 23.25C11.0051 23.25 10.4765 23.0221 10.039 22.5664C9.60148 22.1106 9.38273 21.5729 9.38273 20.9531H13.8671Z" class="fill-1" fill="black"/>
</svg>
