<svg width="24" height="24" viewBox="0 0 24 24" xmlns="http://www.w3.org/2000/svg">
<path fill-rule="evenodd" clip-rule="evenodd" d="M4.75388 16.2009L3.32857 16.9283L11.9955 21.3515L20.6625 16.9283L19.5796 16.3756L21.6137 15.3376L23.6547 16.3792C23.958 16.534 24.0784 16.9053 23.9236 17.2084C23.8645 17.3242 23.7705 17.4182 23.6547 17.4773L12.2758 23.2847C12.0997 23.3745 11.8913 23.3745 11.7153 23.2847L0.336337 17.4773C0.0331079 17.3225 -0.087254 16.9513 0.0675009 16.648C0.126549 16.5324 0.220637 16.4383 0.336337 16.3792L2.71986 15.1628L4.75388 16.2009ZM4.75388 11.2695L3.32857 11.997L11.9955 16.4202L20.6625 11.997L19.5796 11.4443L21.6137 10.4062L23.6547 11.4479C23.958 11.6026 24.0784 11.974 23.9236 12.2771C23.8645 12.3928 23.7705 12.4869 23.6547 12.546L12.2758 18.3533C12.0997 18.4432 11.8913 18.4432 11.7153 18.3533L0.336337 12.546C0.0331079 12.3912 -0.087254 12.02 0.0675009 11.7167C0.126549 11.6011 0.220637 11.5069 0.336337 11.4479L2.71986 10.2314L4.75388 11.2695ZM20.6711 7.07187L12.0041 2.64863L3.33716 7.07187L12.0041 11.4951L20.6711 7.07187ZM12.2845 0.715564L23.6635 6.52291C23.9668 6.67766 24.0871 7.04893 23.9324 7.35216C23.8733 7.46786 23.7792 7.56195 23.6635 7.621L12.2845 13.4283C12.1085 13.5182 11.9001 13.5182 11.7241 13.4283L0.345111 7.621C0.0418817 7.46624 -0.0784805 7.09497 0.0762744 6.79175C0.135323 6.67604 0.229411 6.58195 0.345111 6.52291L11.7241 0.715564C11.9001 0.625737 12.1085 0.625737 12.2845 0.715564Z" class="fill-1" fill="black"/>
</svg>
