<svg width="24" height="24" viewBox="0 0 24 24" xmlns="http://www.w3.org/2000/svg"><path fill-rule="evenodd" clip-rule="evenodd" d="M5.87623 7.52429V20.4192C5.87623 21.6837 5.58684 22.2369 5.30442 22.3427C4.50945 22.3078 3.87255 21.4919 3.87255 20.4924V8.49939L5.87623 7.52429ZM9.97882 10.2346L10.8179 10.2334H11.1666V9.8847V7.02915H16.9382V9.88592V10.2357L17.2869 10.2346L18.1284 10.2334H18.477V9.8847V7.02915H20.1285V20.4924C20.1285 21.4733 19.3289 22.2717 18.3468 22.2717L7.25339 22.3334C7.43819 21.8091 7.53001 21.1676 7.53001 20.4192V7.02915H9.62899V9.88592V10.2357L9.97882 10.2346ZM16.9382 5.3753H11.1665V5.09055C11.1665 3.13221 12.4613 1.5388 14.0524 1.5388C15.6434 1.5388 16.9382 3.13221 16.9382 5.09055V5.3753ZM21.5418 5.6182C21.3862 5.4613 21.1781 5.37529 20.9561 5.37529H18.4783V5.09055C18.4783 2.28378 16.4931 0 14.0537 0C11.6141 0 9.62905 2.28378 9.62905 5.09055V5.37529H6.71186C6.6491 5.37529 6.58401 5.38111 6.52474 5.39389C6.45036 5.41249 6.39341 5.43341 6.33414 5.46246L2.68242 7.23718C2.4 7.37549 2.21753 7.66721 2.21753 7.98217V20.4935C2.21753 22.295 3.44949 23.7734 5.09288 23.9558C5.17772 23.9848 5.26721 24 5.3567 24L18.3504 23.9279C20.2413 23.9279 21.7824 22.3868 21.7824 20.4935V6.20164C21.7836 5.98314 21.6987 5.7751 21.5418 5.6182Z" class="fill-1" fill="black"/></svg>
