<svg width="24" height="24" viewBox="0 0 24 24" xmlns="http://www.w3.org/2000/svg">
<path fill-rule="evenodd" clip-rule="evenodd" d="M11.9997 19.5835C13.1374 19.5835 14.1828 19.299 15.1357 18.7301C16.0743 18.1755 16.821 17.4217 17.3757 16.4688C17.9303 15.5159 18.2077 14.4706 18.2077 13.3328C18.2077 12.195 17.9303 11.1497 17.3757 10.1968C16.821 9.25817 16.0743 8.51151 15.1357 7.95684C14.1828 7.40217 13.1374 7.12484 11.9997 7.12484C10.8619 7.12484 9.81656 7.40217 8.86367 7.95684C7.925 8.51151 7.17834 9.25817 6.62367 10.1968C6.069 11.1497 5.79167 12.195 5.79167 13.3328C5.79167 14.4706 6.069 15.5159 6.62367 16.4688C7.17834 17.4217 7.925 18.1755 8.86367 18.7301C9.81656 19.299 10.8619 19.5835 11.9997 19.5835ZM18.2507 8.38384C18.8053 9.08073 19.232 9.84161 19.5307 10.6665C19.8436 11.5198 20 12.4087 20 13.3331C20 14.7838 19.6373 16.1278 18.912 17.3651C18.2009 18.574 17.2409 19.534 16.032 20.2451C14.7947 20.9705 13.4507 21.3331 12 21.3331C10.5493 21.3331 9.20534 20.9705 7.968 20.2451C6.75911 19.534 5.79911 18.574 5.088 17.3651C4.36266 16.1278 4 14.7838 4 13.3331C4 11.8825 4.36266 10.5385 5.088 9.30117C5.79911 8.09228 6.75911 7.13229 7.968 6.42117C9.20534 5.69584 10.5493 5.33317 12 5.33317C12.9102 5.33317 13.8062 5.49673 14.688 5.82384C15.5129 6.13673 16.2809 6.5705 16.992 7.12517L18.2507 5.82384C18.6489 6.15095 19.0684 6.5705 19.5093 7.08251L18.2507 8.38384ZM11.125 14.2505V8.91716H12.8743V14.2505H11.125ZM14.6667 2.6665V4.45851H9.33333V2.6665H14.6667Z" class="fill-1" fill="black"/>
</svg>
