<svg width="24" height="24" viewBox="0 0 24 24" xmlns="http://www.w3.org/2000/svg">
<path fill-rule="evenodd" clip-rule="evenodd" d="M4.60882 15.9568C5.01591 16.3809 5.53009 16.6025 6.11218 16.6025H16.1309L20 20.4716V5.64099C20 5.06469 19.7888 4.55429 19.3817 4.14715C18.9745 3.74001 18.4641 3.52881 17.8878 3.52881H6.11218C5.53588 3.52881 5.02548 3.74001 4.61834 4.14715C4.2112 4.55429 4 5.06469 4 5.64099V14.4551C4 15.0277 4.20821 15.5395 4.60882 15.9568ZM18.4389 5.08992C18.5958 5.24688 18.6667 5.4181 18.6667 5.64095V17.2526L16.6832 15.2691H6.11218C5.89512 15.2691 5.72768 15.197 5.57067 15.0334C5.40717 14.8631 5.33333 14.6816 5.33333 14.455V5.64095C5.33333 5.4181 5.40418 5.24688 5.56115 5.08992C5.71812 4.93295 5.88933 4.8621 6.11218 4.8621H17.8878C18.1107 4.8621 18.2819 4.93295 18.4389 5.08992Z" class="fill-1" fill="black"/>
</svg>
