<svg width="24" height="24" viewBox="0 0 24 24" xmlns="http://www.w3.org/2000/svg">
<path fill-rule="evenodd" clip-rule="evenodd" d="M3.05433 3.40539C3.19427 3.26973 3.38194 3.19529 3.57551 3.19531L11.6658 3.2013L11.6873 3.20126L11.6939 3.20123C11.8862 3.19883 12.0746 3.27034 12.2156 3.40315L12.218 3.40541L16.6141 7.63036C16.7504 7.76595 16.83 7.94907 16.8332 8.14272L16.8333 8.14832V19.1323C16.8333 19.3292 16.7525 19.5159 16.6122 19.6519C16.4723 19.7876 16.2846 19.862 16.091 19.862H12.1894V18.4026H15.3488V8.87801H11.6991C11.5055 8.87802 11.3178 8.80359 11.1779 8.66794C11.0376 8.53195 10.9568 8.34526 10.9568 8.14832V4.65472H4.3177V7.68247H2.83325V3.92505C2.83324 3.72811 2.91404 3.54138 3.05433 3.40539ZM12.4413 5.66118V7.41861H14.2699L12.4413 5.66118Z" class="fill-1" fill="black"/>
<path fill-rule="evenodd" clip-rule="evenodd" d="M12.2202 3.39531L16.6068 7.62196C16.7535 7.76866 16.8335 7.94196 16.8335 8.14196V19.1287C16.8335 19.3287 16.7535 19.5153 16.6068 19.6487C16.4735 19.782 16.2868 19.862 16.0868 19.862H3.58016C3.38016 19.862 3.1935 19.782 3.06016 19.6487C2.9135 19.5153 2.8335 19.3153 2.8335 19.1287V3.91531C2.8335 3.72864 2.9135 3.54197 3.06016 3.40864C3.1935 3.26197 3.38016 3.19531 3.58016 3.19531H11.7002C11.8868 3.20864 12.0735 3.26197 12.2202 3.39531ZM12.4468 5.66197V7.40866H14.2735L12.4468 5.66197ZM11.7002 8.87526C11.5002 8.87526 11.3135 8.79526 11.1802 8.66196C11.0335 8.52866 10.9535 8.34196 10.9535 8.14196V4.64864H4.3135V18.3953H15.3535V8.87526H11.7002Z" class="fill-1" fill="black"/>
</svg>
