<svg width="24" height="24" viewBox="0 0 24 24" xmlns="http://www.w3.org/2000/svg">
<path fill-rule="evenodd" clip-rule="evenodd" d="M19.4936 8.35548V6.51117L12.0001 11.1L4.50651 6.51117V8.35548L12.0001 12.9004L19.4936 8.35548ZM19.4936 4.66675C20.0022 4.66675 20.4359 4.84971 20.7949 5.21565C21.1539 5.58159 21.3334 6.01339 21.3334 6.51106V17.4891C21.3334 17.9867 21.1539 18.4185 20.7949 18.7845C20.4359 19.1504 20.0022 19.3334 19.4936 19.3334H4.50649C3.99794 19.3334 3.56419 19.1504 3.20521 18.7845C2.84623 18.4185 2.66675 17.9867 2.66675 17.4891V6.51106C2.66675 6.01339 2.84623 5.58159 3.20521 5.21565C3.56419 4.84971 3.99794 4.66675 4.50649 4.66675H19.4936Z" class="fill-1" fill="black"/>
</svg>
