<svg width="24" height="24" viewBox="0 0 24 24" xmlns="http://www.w3.org/2000/svg">
<path fill-rule="evenodd" clip-rule="evenodd" d="M3.3846 4.13623C2.71279 4.13623 2.25 4.78663 2.25 5.47525V18.5244C2.25 19.2107 2.71177 19.8634 3.3846 19.8634H20.6154C21.2872 19.8634 21.75 19.213 21.75 18.5244V5.47525C21.75 4.78897 21.2882 4.13623 20.6154 4.13623H3.3846ZM11.7071 12.0974L4.49402 5.72389H19.506L12.2928 12.0975C12.2276 12.1552 12.1216 12.194 12 12.194C11.8784 12.1939 11.7723 12.155 11.7071 12.0974ZM3.63372 18.2758V6.96978L10.8606 13.3556C11.1829 13.6403 11.5934 13.7802 12 13.7802C12.4068 13.7802 12.8174 13.6403 13.1395 13.3555L20.3663 6.96978V18.2758H3.63372Z" class="fill-1" fill="black"/>
</svg>
