<svg width="24" height="24" viewBox="0 0 24 24" xmlns="http://www.w3.org/2000/svg">
<path fill-rule="evenodd" clip-rule="evenodd" d="M22.6667 21.3366V14.7532L22.6666 2.66073H1.33333V19.0711H20.4855L22.6667 21.3366ZM22.6666 1.32739C23.403 1.32739 24 1.92435 24 2.66073V14.7418V14.7544V21.3366C24 22.5367 22.5385 23.1259 21.7062 22.2614L19.9183 20.4045H1.33333C0.596954 20.4045 0 19.8075 0 19.0711V2.66073C0 1.92435 0.596956 1.32739 1.33334 1.32739H22.6666ZM10.8952 16.6607H5.29517V5.20471H10.5432V6.58071H7.02317V10.1967H9.91917V11.5887H7.02317V15.2847H10.8952V16.6607ZM13.7065 16.6607H12.1545V5.20471H14.0266L16.5706 11.6687L17.1466 13.2527H17.1785L17.1466 11.6687V5.20471H18.6985V16.6607H17.0026L14.2985 9.94071L13.7226 8.34071H13.6746L13.7065 9.94071V16.6607Z" class="fill-1" fill="black"/>
</svg>
