<svg width="24" height="24" viewBox="0 0 24 24" xmlns="http://www.w3.org/2000/svg">
<path fill-rule="evenodd" clip-rule="evenodd" d="M7.58463 17.4359L2.414 22.6066L1 21.1926L5.71917 16.4734C5.56278 16.3741 5.40639 16.27 5.25 16.1613C4.17857 15.4165 3.33929 14.7818 2.73214 14.257C2.125 13.7323 1.21429 12.8775 0 11.6926C2.32144 9.49201 4.38392 7.85857 6.1875 6.79215C7.99108 5.72574 9.92856 5.19254 12 5.19254C13.386 5.19254 14.7809 5.46433 16.1847 6.00789L20.799 1.39355L22.213 2.80756L18.1035 6.91707C20.052 8.00811 22.0175 9.61686 24 11.7434C23.0357 12.6574 22.4196 13.2329 22.1518 13.4699C21.8839 13.7069 21.2321 14.2316 20.1964 15.0441C19.1607 15.8566 18.3214 16.4152 17.6786 16.7199C17.0357 17.0246 16.1875 17.3462 15.1339 17.6848C14.0804 18.0233 13.0357 18.1926 12 18.1926C10.7143 18.1926 9.53572 18.0402 8.46429 17.7355C8.17107 17.6522 7.87785 17.5523 7.58463 17.4359ZM9.45099 15.5696C10.2143 15.9849 11.0639 16.1926 12 16.1926C13.3704 16.1926 14.5463 15.7475 15.5278 14.8574C16.5093 13.9673 17 12.9124 17 11.6926C17 10.6891 16.6679 9.7972 16.0037 9.01686L13.3695 11.6511C13.519 11.6788 13.6779 11.6926 13.8462 11.6926C14.2308 11.6926 14.6154 11.5825 15 11.3624V11.6926C15 12.3844 14.7115 12.974 14.1346 13.4614C13.5577 13.9489 12.8462 14.1926 12 14.1926C11.6302 14.1926 11.2861 14.146 10.9677 14.0529L9.45099 15.5696ZM12 10.1925C12 10.1894 12 10.1862 12 10.1831C12 9.8372 12.1538 9.50701 12.4615 9.19254H12C11.1538 9.19254 10.4423 9.43625 9.86539 9.92368C9.28846 10.4111 9 11.0007 9 11.6926C9 12.1211 9.11068 12.5104 9.33204 12.8605L7.90868 14.2839C7.30289 13.5238 7 12.66 7 11.6926C7 10.4728 7.49074 9.41782 8.47222 8.52771C9.45371 7.6376 10.6296 7.19254 12 7.19254C12.8935 7.19254 13.7043 7.38173 14.4324 7.76011L12 10.1925Z" class="fill-1" fill="black"/>
</svg>
