<svg width="24" height="24" viewBox="0 0 24 24" xmlns="http://www.w3.org/2000/svg">
<path fill-rule="evenodd" clip-rule="evenodd" d="M12 5.5C15.9286 5.5 19.9286 7.68357 24 12.0508C23.0357 12.9648 22.4196 13.5404 22.1518 13.7773C21.8839 14.0143 21.2321 14.5391 20.1964 15.3516C19.1607 16.1641 18.3214 16.7226 17.6786 17.0273C17.0357 17.332 16.1875 17.6536 15.1339 17.9922C14.0804 18.3307 13.0357 18.5 12 18.5C10.7143 18.5 9.53572 18.3476 8.46429 18.043C7.39285 17.7383 6.32143 17.2135 5.25 16.4687C4.17857 15.7239 3.33929 15.0892 2.73214 14.5645C2.125 14.0397 1.21429 13.1849 0 12C2.32144 9.79946 4.38392 8.16602 6.1875 7.0996C7.99108 6.0332 9.92856 5.5 12 5.5ZM8.44444 15.1648C9.44445 16.0549 10.6296 16.5 12 16.5C13.3704 16.5 14.5463 16.0549 15.5278 15.1648C16.5093 14.2747 17 13.2198 17 12C17 10.7802 16.5093 9.72528 15.5278 8.83516C14.5463 7.94505 13.3704 7.5 12 7.5C10.6296 7.5 9.45371 7.94505 8.47222 8.83516C7.49074 9.72528 7 10.7802 7 12C7 13.2198 7.48148 14.2747 8.44444 15.1648ZM12 10.4906C12 10.9308 12.1731 11.2925 12.5192 11.5755C12.8654 11.8585 13.3077 12 13.8462 12C14.2308 12 14.6154 11.8899 15 11.6698V12C15 12.6918 14.7115 13.2814 14.1346 13.7689C13.5577 14.2563 12.8462 14.5 12 14.5C11.1538 14.5 10.4423 14.2563 9.86538 13.7689C9.28846 13.2814 9 12.6918 9 12C9 11.3082 9.28846 10.7186 9.86538 10.2311C10.4423 9.7437 11.1538 9.5 12 9.5H12.4615C12.1538 9.81446 12 10.1447 12 10.4906Z" class="fill-1" fill="black"/>
</svg>
