<svg width="24" height="24" viewBox="0 0 24 24" xmlns="http://www.w3.org/2000/svg">
<path fill-rule="evenodd" clip-rule="evenodd" d="M22.6667 21.3366V14.7532L22.6666 2.66072H1.33333V19.0712H20.4855L22.6667 21.3366ZM22.6666 1.32739C23.403 1.32739 24 1.92434 24 2.66072V14.7418V14.7544V21.3366C24 22.5367 22.5385 23.1259 21.7062 22.2614L19.9183 20.4045H1.33333C0.596954 20.4045 0 19.8075 0 19.0712V2.66072C0 1.92434 0.596956 1.32739 1.33334 1.32739H22.6666ZM7.52317 16.6606H5.79517V5.20459H11.2032V6.58058H7.52317V10.1966H10.3232V11.5886H7.52317V16.6606ZM13.9763 6.56458V10.3726H14.9683C16.2003 10.3726 16.7603 9.76459 16.7603 8.42058C16.7603 7.02858 16.2643 6.56458 15.1283 6.56458H13.9763ZM13.9763 11.7166V16.6606H12.2483V5.20459H15.4003C17.6563 5.20459 18.5843 6.24459 18.5843 8.27658C18.5843 9.84459 17.8483 10.8366 16.6163 11.2366V11.3966C17.2403 11.7646 17.5603 12.5166 17.8163 13.9566C18.1203 15.5566 18.3123 16.0366 18.6483 16.4206V16.6606H16.7283C16.5203 16.3086 16.3603 15.7166 16.2483 15.0126C16.2087 14.8058 16.1679 14.5881 16.1265 14.3675C16.0175 13.786 15.9047 13.1842 15.8003 12.7086C15.6563 11.9566 15.5123 11.7166 14.9203 11.7166H13.9763Z" class="fill-1" fill="black"/>
</svg>
