<svg width="24" height="24" viewBox="0 0 24 24" xmlns="http://www.w3.org/2000/svg">
<path fill-rule="evenodd" clip-rule="evenodd" d="M19.8334 8.00009H14.6667C15.4028 8.00009 16.0313 7.73967 16.5521 7.21884C17.073 6.698 17.3334 6.06953 17.3334 5.33342C17.3334 4.5973 17.073 3.96884 16.5521 3.448C16.0313 2.92716 15.4028 2.66675 14.6667 2.66675C13.9306 2.66675 13.3021 2.92716 12.7813 3.448C12.2605 3.96884 12.0001 4.5973 12.0001 5.33342C12.0001 4.5973 11.7397 3.96884 11.2188 3.448C10.698 2.92716 10.0695 2.66675 9.33342 2.66675C8.5973 2.66675 7.96884 2.92716 7.448 3.448C6.92716 3.96884 6.66675 4.5973 6.66675 5.33342C6.66675 6.06953 6.92716 6.698 7.448 7.21884C7.96884 7.73967 8.5973 8.00009 9.33342 8.00009H4.16675C3.75008 8.00009 3.39592 8.14592 3.10425 8.43759C2.81258 8.72925 2.66675 9.08342 2.66675 9.50009V11.8334C2.66675 12.2501 2.81258 12.6042 3.10425 12.8959C3.39592 13.1876 3.75008 13.3334 4.16675 13.3334H4.00008V19.8334C4.00008 20.2501 4.14592 20.6043 4.43758 20.8959C4.72925 21.1876 5.08341 21.3334 5.50008 21.3334H18.5C18.9167 21.3334 19.2709 21.1876 19.5625 20.8959C19.8542 20.6043 20 20.2501 20 19.8334V13.3334H19.8334C20.25 13.3334 20.6042 13.1876 20.8959 12.8959C21.1875 12.6042 21.3334 12.2501 21.3334 11.8334V9.50009C21.3334 9.08342 21.1875 8.72925 20.8959 8.43759C20.6042 8.14592 20.25 8.00009 19.8334 8.00009ZM9.33334 6.66676C8.96825 6.66676 8.65477 6.53581 8.39286 6.2739C8.13095 6.012 8 5.69851 8 5.33343C8 4.96835 8.13095 4.65486 8.39286 4.39295C8.65477 4.13105 8.96825 4.0001 9.33334 4.0001C9.69842 4.0001 10.0119 4.13105 10.2738 4.39295C10.5357 4.65486 10.6667 4.96835 10.6667 5.33343V6.66676H9.33334ZM5.33334 20.0001H10.6667V13.3334H5.33334V20.0001ZM10.6667 12.0001H4V9.33343H10.6667V12.0001ZM13.7261 4.39295C13.4642 4.65486 13.3333 4.96835 13.3333 5.33343V6.66676H14.6666C15.0317 6.66676 15.3452 6.53581 15.6071 6.2739C15.869 6.012 16 5.69851 16 5.33343C16 4.96835 15.869 4.65486 15.6071 4.39295C15.3452 4.13105 15.0317 4.0001 14.6666 4.0001C14.3015 4.0001 13.988 4.13105 13.7261 4.39295ZM13.3333 20.0001V13.3334H18.6666V20.0001H13.3333ZM13.3333 12.0001H20V9.33343H13.3333V12.0001Z" class="fill-1" fill="black"/>
</svg>
