<svg width="24" height="24" viewBox="0 0 24 24" xmlns="http://www.w3.org/2000/svg">
<path fill-rule="evenodd" clip-rule="evenodd" d="M22.6104 7.60531C22.5604 6.47179 22.3771 5.6925 22.1145 5.01724C21.8436 4.30046 21.4269 3.65874 20.8809 3.12527C20.3474 2.5835 19.7014 2.16251 18.993 1.89586C18.3138 1.63328 17.5386 1.44997 16.4051 1.4C15.2631 1.34579 14.9005 1.33325 12.0041 1.33325C9.10779 1.33325 8.74525 1.34579 7.6075 1.39576C6.47398 1.44574 5.69469 1.62921 5.01959 1.89163C4.30266 2.16251 3.66093 2.57926 3.12746 3.12527C2.58569 3.65874 2.16487 4.3047 1.89806 5.01317C1.63548 5.6925 1.45217 6.46755 1.40219 7.60108C1.34798 8.74306 1.33545 9.1056 1.33545 12.002C1.33545 14.8984 1.34798 15.2609 1.39796 16.3987C1.44794 17.5322 1.63141 18.3115 1.89399 18.9868C2.16487 19.7035 2.58569 20.3453 3.12746 20.8787C3.66093 21.4205 4.30689 21.8415 5.01536 22.1082C5.69469 22.3707 6.46975 22.554 7.60343 22.604C8.74102 22.6542 9.10372 22.6665 12.0001 22.6665C14.8965 22.6665 15.259 22.6542 16.3967 22.604C17.5303 22.554 18.3096 22.3707 18.9847 22.1082C20.4184 21.5538 21.5519 20.4203 22.1062 18.9868C22.3686 18.3074 22.5521 17.5322 22.6021 16.3987C22.652 15.2609 22.6646 14.8984 22.6646 12.002C22.6646 9.1056 22.6603 8.74306 22.6104 7.60531ZM20.6892 16.3154C20.6433 17.3572 20.4683 17.9198 20.3225 18.2949C19.964 19.2243 19.2264 19.9619 18.297 20.3204C17.9219 20.4662 17.3553 20.6412 16.3175 20.687C15.1923 20.7371 14.8548 20.7495 12.0084 20.7495C9.162 20.7495 8.8203 20.7371 7.69915 20.687C6.65728 20.6412 6.09467 20.4662 5.7196 20.3204C5.25711 20.1494 4.83613 19.8786 4.49443 19.5243C4.14019 19.1784 3.86931 18.7616 3.69838 18.2991C3.55251 17.9241 3.37751 17.3572 3.33177 16.3196C3.28163 15.1944 3.26926 14.8567 3.26926 12.0103C3.26926 9.16388 3.28163 8.82218 3.33177 7.70119C3.37751 6.65932 3.55251 6.09671 3.69838 5.72164C3.86931 5.25899 4.14019 4.83817 4.49866 4.4963C4.84443 4.14207 5.26118 3.87118 5.72383 3.70041C6.09891 3.55455 6.66575 3.37955 7.70338 3.33364C8.8286 3.28366 9.16623 3.27113 12.0124 3.27113C14.8631 3.27113 15.2006 3.28366 16.3217 3.33364C17.3636 3.37955 17.9262 3.55455 18.3013 3.70041C18.7637 3.87118 19.1847 4.14207 19.5264 4.4963C19.8807 4.84224 20.1515 5.25899 20.3225 5.72164C20.4683 6.09671 20.6433 6.66339 20.6892 7.70119C20.7392 8.82641 20.7519 9.16388 20.7519 12.0103C20.7519 14.8567 20.7392 15.1901 20.6892 16.3154ZM12.0043 6.52173C8.97891 6.52173 6.52417 8.97631 6.52417 12.002C6.52417 15.0276 8.97891 17.4822 12.0043 17.4822C15.03 17.4822 17.4846 15.0276 17.4846 12.002C17.4846 8.97631 15.03 6.52173 12.0043 6.52173ZM12.0043 15.5569C10.0416 15.5569 8.44951 13.9649 8.44951 12.002C8.44951 10.039 10.0416 8.44707 12.0043 8.44707C13.9673 8.44707 15.5592 10.039 15.5592 12.002C15.5592 13.9649 13.9673 15.5569 12.0043 15.5569ZM17.7007 7.58441C18.4074 7.58441 18.9803 7.01154 18.9803 6.30502C18.9803 5.59834 18.4074 5.02563 17.7007 5.02563C16.9942 5.02563 16.4213 5.59834 16.4213 6.30502C16.4213 7.01154 16.9942 7.58441 17.7007 7.58441Z" class="fill-1" fill="black"/>
</svg>
