<svg width="24" height="24" viewBox="0 0 24 24" xmlns="http://www.w3.org/2000/svg">
<path fill-rule="evenodd" clip-rule="evenodd" d="M1.33325 3.89527C1.33325 2.48105 2.48081 1.3335 3.89503 1.3335C5.30836 1.3335 6.45592 2.48105 6.45681 3.89527C6.45681 5.30949 5.30925 6.48105 3.89503 6.48105C2.48081 6.48105 1.33325 5.30949 1.33325 3.89527ZM22.6614 22.6668L22.6668 22.6659V14.8419C22.6668 11.0143 21.8428 8.06592 17.3681 8.06592C15.217 8.06592 13.7734 9.24636 13.1841 10.3655H13.1219V8.42325H8.87915V22.6659H13.297V15.6135C13.297 13.7566 13.649 11.961 15.9485 11.961C18.2143 11.961 18.2481 14.0801 18.2481 15.7326V22.6668H22.6614ZM1.68481 8.42407H6.10792V22.6667H1.68481V8.42407Z" class="fill-1" fill="black"/>
</svg>
