<svg width="24" height="24" viewBox="0 0 24 24" xmlns="http://www.w3.org/2000/svg">
<path d="M10.974 5.16806C12.4971 3.59738 13.4368 2.68537 13.793 2.4293C15.8981 1.11742 18.351 0.758646 20.8053 2.61553C23.5541 4.93253 22.6607 8.34914 21.8767 9.53366C21.1531 10.5758 19.5487 12.1834 17.0649 14.3594C15.7803 15.4754 14.2951 15.952 12.6079 15.7877C10.8001 15.574 9.38224 14.7743 8.34583 13.3844C9.86188 12.3245 10.6304 11.8041 10.6501 11.8233C12.0624 13.3707 13.577 13.5542 15.1941 12.3765L18.9694 8.79145C20.1924 7.25911 20.2204 5.88562 19.0508 4.66961C17.7269 3.74527 16.4086 3.81374 15.0959 4.87502L13.0132 6.9688L10.974 5.16806ZM13.0259 18.8332C11.5028 20.4011 10.5631 21.3118 10.2069 21.5706C8.1004 22.8824 5.64892 23.2412 3.19463 21.3843C0.445824 19.0673 1.33918 15.6521 2.12316 14.4662C2.84682 13.4255 4.45122 11.8164 6.93496 9.64047C8.21821 8.52442 9.70481 8.04788 11.392 8.2122C13.1984 8.42583 14.6176 9.22555 15.6541 10.6141C14.138 11.674 13.3695 12.1944 13.3498 12.1752C11.9376 10.6278 10.4229 10.4443 8.80583 11.622L5.03044 15.207C3.8075 16.7394 3.77945 18.1129 4.94909 19.3289C6.27301 20.2532 7.59131 20.1847 8.90401 19.1235L10.9852 17.0311L13.0259 18.8332Z" class="fill-1" fill="black"/>
</svg>
