<svg width="24" height="24" viewBox="0 0 24 24" xmlns="http://www.w3.org/2000/svg">
<path fill-rule="evenodd" clip-rule="evenodd" d="M2.80031 6.66653C3.38941 6.66653 3.86697 6.18897 3.86697 5.59987C3.86697 5.01076 3.38941 4.5332 2.80031 4.5332C2.21121 4.5332 1.73364 5.01076 1.73364 5.59987C1.73364 6.18897 2.21121 6.66653 2.80031 6.66653ZM22.2665 4.53324H5.19987V6.66657H22.2665V4.53324ZM16.9332 10.9331H5.19987V13.0665H16.9332V10.9331ZM5.19987 17.3333H20.1332V19.4666H5.19987V17.3333ZM3.86705 12C3.86705 12.5891 3.38949 13.0666 2.80039 13.0666C2.21129 13.0666 1.73372 12.5891 1.73372 12C1.73372 11.4109 2.21129 10.9333 2.80039 10.9333C3.38949 10.9333 3.86705 11.4109 3.86705 12ZM2.80039 19.4666C3.38949 19.4666 3.86705 18.989 3.86705 18.3999C3.86705 17.8108 3.38949 17.3333 2.80039 17.3333C2.21129 17.3333 1.73372 17.8108 1.73372 18.3999C1.73372 18.989 2.21129 19.4666 2.80039 19.4666Z" class="fill-1" fill="black"/>
</svg>
