<svg width="24" height="24" viewBox="0 0 24 24" xmlns="http://www.w3.org/2000/svg">
<path fill-rule="evenodd" clip-rule="evenodd" d="M21.9952 5.47262C21.036 6.03323 20.7171 6.7899 20.7171 7.95994V17.2953C20.7171 17.882 20.7913 18.1484 21.1102 18.3202L21.4297 18.4914L22.3128 17.9777L22.6082 18.5645L19.5392 20.3934L18.4843 19.6851C18.0164 19.3684 17.8193 18.9781 17.8193 18.222V9.88545C17.8193 8.326 18.3119 7.496 18.9991 6.98509L19.3921 6.69268L16.4955 5.00958L15.1946 5.78927V17.9299C15.1946 18.9536 15.0475 19.1003 14.1378 19.5629C14.1378 19.5629 13.4271 19.9048 12.4469 20.4166H12.2501V6.96054C12.2501 6.30298 12.1753 6.15565 11.8073 5.86356L10.7774 5.03504L9.5247 5.74108V12.7141C9.5247 13.9322 9.32881 14.8098 8.34675 15.4186L5.89272 16.9547L5.64579 16.5411C6.40779 15.955 6.57898 15.1252 6.57898 14.1507V7.03327C6.57898 5.98473 6.43312 5.5708 5.32721 5.76598C4.91038 5.83805 4.27197 5.93628 3.87922 5.98473C2.25851 6.20475 1.57066 5.05866 2.67562 3.62077C2.67562 3.62077 2.94635 3.25496 3.63324 2.37646L4.17463 2.74316L3.78064 3.30379C3.26554 4.03623 3.68268 4.42593 4.51792 4.13227C4.91038 3.9859 5.6708 3.69437 6.21098 3.47379C8.54208 2.57254 9.40204 4.05955 9.5247 4.93745L12.4222 3.20651L14.9239 5.10716L18.0164 3.20651L20.3982 4.54775C21.2078 5.00958 21.6009 4.81502 22.1657 4.52197L22.6323 4.27863L23 4.88836L21.9952 5.47262ZM6.84935 20.4166C6.604 19.7329 5.89272 19.0266 4.61557 18.9781C3.412 18.9536 1.69363 19.4175 0.270994 20.4903L0 20.1485C1.03174 19.0266 3.43733 17.2235 5.96498 17.1984C7.29156 17.1984 8.2241 17.6378 8.88693 18.3448L9.99224 17.7347L10.3115 18.3693L6.84935 20.4166Z" class="fill-1" fill="black"/>
<path opacity="0.581799" fill-rule="evenodd" clip-rule="evenodd" d="M17.6254 7.86189C17.402 8.39795 17.3025 9.05722 17.3025 9.81422L17.3269 18.1604C17.3269 19.0635 17.601 19.6497 18.2474 20.089L19.0428 20.6266L18.7192 20.822L17.8494 20.2352C17.2775 19.8451 16.9796 19.1858 16.9796 18.454V10.302C16.9796 9.17918 17.2287 8.39795 17.6254 7.86189ZM10.7912 5.66399C11.0969 5.90655 11.5556 6.24803 11.5556 6.27254C11.7339 6.44247 11.7836 6.53925 11.7836 6.92884V20.7479C11.7836 20.7479 11.707 20.7969 11.6566 20.822H11.4526V7.24548C11.4526 6.58886 11.4019 6.58886 10.9945 6.2961L10.4082 5.85846L10.7912 5.66399ZM4.59183 19.4578C5.88485 19.4815 6.25901 20.2751 6.33363 20.5236L6.35836 20.5972L5.98453 20.822C5.78647 20.1764 5.18791 19.6307 4.14243 19.4815C4.29286 19.4578 4.44171 19.4578 4.59183 19.4578ZM5.62956 6.19452C5.90728 6.1945 6.05272 6.35467 6.05272 6.94696V14.0643C6.05272 14.8933 5.90658 15.4296 5.53751 15.8198C5.65957 15.4296 5.70963 14.9902 5.70963 14.5276V7.43448C5.70963 6.58154 5.65957 6.48517 5.36502 6.21706H5.41477C5.49336 6.20318 5.56507 6.19452 5.62956 6.19452ZM16.5145 5.58821L18.4315 6.70485C18.3569 6.77882 18.2823 6.85283 18.2077 6.95242L16.2155 5.78548L16.5145 5.58821ZM1.65827 4.14819C1.47022 4.69697 1.49366 5.22089 1.72917 5.65051C1.94214 6.03099 2.31823 6.29381 2.76701 6.41324C2.69883 6.41906 2.6325 6.4219 2.56814 6.4219C1.31958 6.4219 0.808119 5.35006 1.65827 4.14819Z" class="fill-2" fill="grey"/>
</svg>
