<svg width="24" height="24" viewBox="0 0 24 24" xmlns="http://www.w3.org/2000/svg">
<path fill-rule="evenodd" clip-rule="evenodd" d="M4.10525 2.52637V8.84214H0V18.9474C0 20.3426 1.13107 21.4737 2.52632 21.4737H16.4211H21.4737C22.8688 21.4737 24 20.3426 24 18.9474V2.52637H4.10525ZM5.99999 10.7369V8.84214V4.4211H22.1053V18.9474C22.1053 19.2962 21.8225 19.579 21.4737 19.579H16.4211H14.5263H5.73111C5.90839 19.0943 6.00011 18.5804 6.00011 18.0603L5.99999 10.7369ZM4.10525 10.7369L4.10538 18.0603C4.10538 18.5035 3.98878 18.9389 3.76732 19.3228L3.61955 19.579H2.52632C2.1775 19.579 1.89473 19.2962 1.89473 18.9474V10.7369H4.10525ZM13.8947 17.0526V15.1579H7.57893V17.0526H13.8947ZM13.8947 7.57899V13.2632H7.57893V7.57899H13.8947ZM20.2105 17.0526V15.1579H15.1578V17.0526H20.2105ZM20.2105 11.3684V13.2632H15.1578V11.3684H20.2105ZM20.2105 9.47372V7.57899H15.1578V9.47372H20.2105Z" class="fill-1" fill="black"/>
</svg>
