<svg width="24" height="24" viewBox="0 0 24 24" xmlns="http://www.w3.org/2000/svg">
<path fill-rule="evenodd" clip-rule="evenodd" d="M3.27272 3.27271H20.7272C22.4405 3.27271 24 4.79234 24 6.46143V17.664C24 19.3532 22.6255 20.7273 20.9367 20.7273H3.06327C1.374 20.7273 0 19.3532 0 17.664V6.54543C0 5.17907 1.24473 3.27271 3.27272 3.27271ZM20.7272 4.36362H3.27272C1.86109 4.36362 1.0909 5.80525 1.0909 6.54543V7.09089H22.909V6.46143C22.909 5.4027 21.8285 4.36362 20.7272 4.36362ZM3.06327 19.6363H20.9367C22.0244 19.6363 22.909 18.7516 22.909 17.664V9.2727H1.0909V17.664C1.0909 18.7516 1.97564 19.6363 3.06327 19.6363ZM17.1818 16.1182H19.9091C20.5091 16.1182 21 16.4863 21 16.9363C21 17.3864 20.5091 17.7545 19.9091 17.7545H17.1818C16.5818 17.7545 16.0909 17.3864 16.0909 16.9363C16.0909 16.4863 16.5818 16.1182 17.1818 16.1182Z" class="fill-1" fill="black"/>
</svg>
