<svg width="24" height="24" viewBox="0 0 24 24" xmlns="http://www.w3.org/2000/svg">
<path fill-rule="evenodd" clip-rule="evenodd" d="M12 0C9.79086 0 8 1.79086 8 4V11C8 13.2092 9.79086 15 12 15C14.2092 15 16 13.2092 16 11V9.99997H11.9999V8.00003H16V6H11.9999V4H16C16 1.79086 14.2092 0 12 0ZM19 11.9131C19 11.4088 18.5912 11 18.087 11C17.5827 11 17.1739 11.4088 17.1739 11.9131C17.1739 14.7705 14.8575 17.087 12 17.087C9.14253 17.087 6.82609 14.7705 6.82609 11.9131C6.82609 11.4088 6.41731 11 5.91304 11C5.40878 11 5 11.4088 5 11.9131C5 15.4696 7.65232 18.4066 11.0869 18.854V22.0001H8.54398L8.41702 22.0091C7.96033 22.0754 7.60834 22.4938 7.60834 23C7.60834 23.5523 8.02724 24 8.54398 24H15.6727L15.7997 23.9909C16.2564 23.9247 16.6083 23.5063 16.6083 23C16.6083 22.4477 16.1895 22.0001 15.6727 22.0001H13.0869V18.8292C16.4367 18.307 19 15.4093 19 11.9131Z" class="fill-1" fill="black"/>
</svg>
