<svg width="24" height="24" viewBox="0 0 24 24" xmlns="http://www.w3.org/2000/svg">
<path fill-rule="evenodd" clip-rule="evenodd" d="M11.9995 19.1999C13.0956 19.1999 14.1052 18.9312 15.0283 18.3935C15.9514 17.856 16.6821 17.1263 17.2206 16.2047C17.759 15.2831 18.0283 14.2751 18.0283 13.1807C18.0283 12.0863 17.759 11.0783 17.2206 10.1568C16.6821 9.23516 15.9514 8.50557 15.0283 7.96796C14.1052 7.43036 13.0956 7.16156 11.9995 7.16156C10.9033 7.16156 9.89369 7.43036 8.97062 7.96796C8.04754 8.50557 7.31677 9.23516 6.77831 10.1568C6.23985 11.0783 5.97062 12.0863 5.97062 13.1807C5.97062 14.2751 6.23985 15.2831 6.77831 16.2047C7.31677 17.1263 8.04754 17.856 8.97062 18.3935C9.89369 18.9312 10.9033 19.1999 11.9995 19.1999ZM8.39422 1.19995H15.6057L17.798 3.56155H21.6346C22.2885 3.56155 22.8461 3.80154 23.3076 4.28155C23.7692 4.76155 24 5.32794 24 5.98074V20.3807C24 21.0335 23.7692 21.6 23.3076 22.0799C22.8461 22.5599 22.2885 22.7999 21.6346 22.7999H2.36539C1.71154 22.7999 1.15384 22.5599 0.692307 22.0799C0.230767 21.6 0 21.0335 0 20.3807V5.98074C0 5.32794 0.230767 4.76155 0.692307 4.28155C1.15384 3.80154 1.71154 3.56155 2.36539 3.56155H6.20192L8.39422 1.19995ZM8.16349 13.1807C8.16349 12.4895 8.33656 11.8512 8.68272 11.2655C9.02888 10.6799 9.49526 10.2143 10.0818 9.86873C10.6683 9.52313 11.3077 9.35033 12 9.35033C12.6923 9.35033 13.3318 9.52313 13.9183 9.86873C14.5048 10.2143 14.9712 10.6799 15.3174 11.2655C15.6635 11.8512 15.8366 12.4895 15.8366 13.1807C15.8366 13.8719 15.6635 14.5103 15.3174 15.0959C14.9712 15.6816 14.5048 16.1471 13.9183 16.4927C13.3318 16.8383 12.6923 17.0111 12 17.0111C11.3077 17.0111 10.6683 16.8383 10.0818 16.4927C9.49526 16.1471 9.02888 15.6816 8.68272 15.0959C8.33656 14.5103 8.16349 13.8719 8.16349 13.1807Z" class="fill-1" fill="black"/>
</svg>
