<svg width="24" height="24" viewBox="0 0 24 24" xmlns="http://www.w3.org/2000/svg">
<path fill-rule="evenodd" clip-rule="evenodd" d="M1.79993 6.00003H22.1999V4.80003C22.1999 4.46883 21.9299 4.20003 21.5999 4.20003H19.4387C19.3151 4.54803 18.9899 4.80003 18.5999 4.80003C18.2099 4.80003 17.8847 4.54803 17.7611 4.20003H6.23992C6.11512 4.54803 5.79112 4.80003 5.39992 4.80003C5.00872 4.80003 4.68472 4.54803 4.55992 4.20003H2.39993C2.06873 4.20003 1.79993 4.46883 1.79993 4.80003V6.00003ZM21.5999 22.2C21.9299 22.2 22.1999 21.93 22.1999 21.6001V7.80003H1.79993V21.6001C1.79993 21.93 2.06873 22.2 2.39993 22.2H21.5999ZM19.5 2.4H21.6C22.9248 2.4 24 3.4752 24 4.8V21.6C24 22.9248 22.9248 24 21.6 24H2.4C1.0752 24 0 22.9248 0 21.6V4.8C0 3.4752 1.0752 2.4 2.4 2.4H4.49999V0.899997C4.49999 0.403198 4.90319 0 5.39999 0C5.89679 0 6.29999 0.403198 6.29999 0.899997V2.4H17.7V0.899997C17.7 0.403198 18.1032 0 18.6 0C19.0968 0 19.5 0.403198 19.5 0.899997V2.4ZM13.1999 19.8774C13.1999 19.215 13.7363 18.6774 14.3999 18.6774C15.0636 18.6774 15.5999 19.215 15.5999 19.8774C15.5999 20.5409 15.0636 21.0773 14.3999 21.0773C13.7363 21.0773 13.1999 20.5409 13.1999 19.8774ZM8.39991 10.278C8.39991 9.61558 8.93751 9.07792 9.59993 9.07792C10.2623 9.07792 10.7999 9.61558 10.7999 10.278C10.7999 10.9404 10.2623 11.4779 9.59993 11.4779C8.93751 11.4779 8.39991 10.9404 8.39991 10.278ZM14.3999 9.07792C13.7363 9.07792 13.1999 9.61558 13.1999 10.278C13.1999 10.9404 13.7363 11.4779 14.3999 11.4779C15.0636 11.4779 15.5999 10.9404 15.5999 10.278C15.5999 9.61558 15.0636 9.07792 14.3999 9.07792ZM17.9999 10.278C17.9999 9.61558 18.5363 9.07792 19.1999 9.07792C19.8635 9.07792 20.3999 9.61558 20.3999 10.278C20.3999 10.9404 19.8635 11.4779 19.1999 11.4779C18.5363 11.4779 17.9999 10.9404 17.9999 10.278ZM4.79992 13.8773C4.13752 13.8773 3.59992 14.415 3.59992 15.0774C3.59992 15.741 4.13752 16.2774 4.79992 16.2774C5.46232 16.2774 5.99992 15.741 5.99992 15.0774C5.99992 14.415 5.46232 13.8773 4.79992 13.8773ZM8.39991 15.0774C8.39991 14.415 8.93751 13.8773 9.59993 13.8773C10.2623 13.8773 10.7999 14.415 10.7999 15.0774C10.7999 15.741 10.2623 16.2774 9.59993 16.2774C8.93751 16.2774 8.39991 15.741 8.39991 15.0774ZM14.3999 13.8773C13.7363 13.8773 13.1999 14.415 13.1999 15.0774C13.1999 15.741 13.7363 16.2774 14.3999 16.2774C15.0636 16.2774 15.5999 15.741 15.5999 15.0774C15.5999 14.415 15.0636 13.8773 14.3999 13.8773ZM17.9999 15.0774C17.9999 14.415 18.5363 13.8773 19.1999 13.8773C19.8635 13.8773 20.3999 14.415 20.3999 15.0774C20.3999 15.741 19.8635 16.2774 19.1999 16.2774C18.5363 16.2774 17.9999 15.741 17.9999 15.0774ZM4.79992 18.6774C4.13752 18.6774 3.59992 19.215 3.59992 19.8774C3.59992 20.5409 4.13752 21.0773 4.79992 21.0773C5.46232 21.0773 5.99992 20.5409 5.99992 19.8774C5.99992 19.215 5.46232 18.6774 4.79992 18.6774ZM9.59993 18.6774C8.93751 18.6774 8.39991 19.215 8.39991 19.8774C8.39991 20.5409 8.93751 21.0773 9.59993 21.0773C10.2623 21.0773 10.7999 20.5409 10.7999 19.8774C10.7999 19.215 10.2623 18.6774 9.59993 18.6774Z" class="fill-1" fill="black"/>
</svg>
