<svg width="24" height="24" viewBox="0 0 24 24" xmlns="http://www.w3.org/2000/svg">
<path fill-rule="evenodd" clip-rule="evenodd" d="M21.6193 19.8768L17.8623 16.1115C17.829 16.0782 17.785 16.0648 17.7477 16.0355C18.8592 14.567 19.5269 12.7437 19.5269 10.7603C19.5269 5.92268 15.6033 2 10.7628 2C5.92227 2 2 5.92268 2 10.7603C2 15.5994 5.92227 19.522 10.7628 19.522C12.7499 19.522 14.5771 18.8525 16.0471 17.7374C16.0778 17.7748 16.0911 17.8201 16.1258 17.8548L19.8841 21.6187C20.3799 22.1163 21.1689 22.1283 21.6486 21.6468C22.1284 21.1666 22.1151 20.373 21.6193 19.8768ZM10.6673 16.6667C7.35352 16.6667 4.66667 13.9805 4.66667 10.6667C4.66667 7.35283 7.35352 4.66667 10.6673 4.66667C13.9811 4.66667 16.6667 7.35283 16.6667 10.6667C16.6667 13.9805 13.9811 16.6667 10.6673 16.6667Z" class="fill-1" fill="black"/>
</svg>
