<svg width="24" height="24" viewBox="0 0 24 24" xmlns="http://www.w3.org/2000/svg">
<path fill-rule="evenodd" clip-rule="evenodd" d="M15.0473 8.23824L13.9511 8.43632C8.71554 9.38235 5.68951 11.8938 3.9038 14.4545C3.07475 15.6434 2.50289 16.8587 2.10877 17.9585C7.10556 13.9106 11.7397 13.5197 13.2904 13.5197C13.4495 13.5197 13.5749 13.5233 13.6651 13.5273C13.7102 13.5293 13.7464 13.5313 13.7737 13.5331L13.8078 13.5355L13.8197 13.5364L13.8244 13.5368L13.8278 13.5371C13.8278 13.5371 13.8282 13.5371 13.714 14.8656C13.714 14.8656 13.5688 14.8531 13.2904 14.8531C13.1603 14.8531 13.0015 14.8563 12.8165 14.8656C12.6843 14.8722 12.5387 14.882 12.3807 14.896C10.2679 15.0833 5.9214 16.0243 1.46282 20.3073C1.38094 20.386 1.29902 20.4657 1.21707 20.5467C1.051 20.7107 0.884817 20.8794 0.718649 21.0529C0.714527 21.0572 0.710406 21.0615 0.706285 21.0659C0.657241 21.1171 0.608199 21.1689 0.55916 21.221C0.486548 21.2959 0.401834 21.3334 0.31712 21.3334C0.135591 21.3334 -0.0217348 21.1835 0.00246915 20.9713C0.012771 20.8946 0.0242163 20.814 0.0369315 20.7298C0.0375858 20.7254 0.0382434 20.7211 0.0389045 20.7167C0.0712247 20.5038 0.111625 20.2675 0.162115 20.0114C0.185841 19.891 0.211793 19.7663 0.240184 19.6375C1.05705 15.9328 3.89122 8.89915 13.714 7.12424V3.04204C13.714 2.72656 14.0689 2.55238 14.3061 2.75141L23.866 10.7718C24.0427 10.92 24.045 11.1976 23.8708 11.3489L14.3109 19.6536C14.0748 19.8588 13.714 19.6856 13.714 19.3671V14.8656L13.8278 13.5371L15.0473 13.642V17.2477L22.153 11.075L15.0473 5.11369V8.23824Z" class="fill-1" fill="black"/>
</svg>
