<svg width="24" height="24" viewBox="0 0 24 24" xmlns="http://www.w3.org/2000/svg">
<path fill-rule="evenodd" clip-rule="evenodd" d="M8.55687 8.45928H0.496338V0L3.47356 3.08261C5.60015 1.16638 8.4157 0 11.5037 0C18.1311 0 23.5037 5.37258 23.5037 12C23.5037 18.6274 18.1311 24 11.5037 24C7.91595 24 4.69597 22.4255 2.49697 19.9298L3.91459 18.5122C5.74856 20.6475 8.46817 22 11.5037 22C17.0265 22 21.5037 17.5228 21.5037 12C21.5037 6.47715 17.0265 2 11.5037 2C8.92558 2 6.57535 2.9756 4.80203 4.57776L5.28139 5.12684L8.55687 8.45928ZM11.9776 7.15283V12.1657L16.079 14.6722L15.253 16.0963L10.1832 13.0487V7.15283H11.9776Z" class="fill-1" fill="black"/>
</svg>
