<svg width="24" height="24" viewBox="0 0 24 24" xmlns="http://www.w3.org/2000/svg">
<path fill-rule="evenodd" clip-rule="evenodd" d="M12 0C14.1923 0 16.2212 0.548072 18.0866 1.64423C19.8943 2.6827 21.3173 4.10576 22.3558 5.91347C23.4519 7.77885 24 9.80768 24 12C24 14.1923 23.4519 16.2212 22.3558 18.0866C21.3173 19.8943 19.8943 21.3173 18.0866 22.3558C16.2212 23.4519 14.1923 24 12 24C9.80768 24 7.77885 23.4519 5.91347 22.3558C4.10576 21.298 2.6827 19.8654 1.64423 18.0577C0.548072 16.1923 0 14.1731 0 12C0 9.82695 0.548072 7.80773 1.64423 5.94231C2.70193 4.13461 4.13461 2.70193 5.94231 1.64423C7.80773 0.548072 9.82695 0 12 0ZM9.5769 17.3942V6.57691L16.7884 12L9.5769 17.3942Z" class="fill-1" fill="black"/>
</svg>
