<svg width="24" height="24" viewBox="0 0 24 24" xmlns="http://www.w3.org/2000/svg">
<path opacity="0.9" fill-rule="evenodd" clip-rule="evenodd" d="M17.1926 14.2607C16.9106 14.1196 15.5243 13.4374 15.2658 13.3433C15.0073 13.2492 14.8193 13.2021 14.6313 13.4843C14.4433 13.7667 13.9029 14.4019 13.7383 14.5901C13.5739 14.7782 13.4093 14.8019 13.1274 14.6607C12.8454 14.5195 11.9367 14.2218 10.8596 13.261C10.0213 12.5133 9.45539 11.5898 9.29088 11.3075C9.12642 11.0252 9.2734 10.8726 9.41458 10.732C9.54143 10.6056 9.69658 10.4026 9.83755 10.2379C9.97857 10.0733 10.0255 9.95558 10.1195 9.7675C10.2135 9.57923 10.1666 9.41456 10.096 9.27343C10.0255 9.1323 9.46156 7.7442 9.22659 7.17951C8.99768 6.62976 8.76521 6.70422 8.59209 6.69545C8.4278 6.68728 8.23959 6.68555 8.05165 6.68555C7.86365 6.68555 7.55812 6.75611 7.29967 7.03838C7.04116 7.32075 6.31267 8.00298 6.31267 9.39097C6.31267 10.779 7.32315 12.1199 7.46418 12.3081C7.60514 12.4964 9.45263 15.3447 12.2814 16.5662C12.9542 16.8567 13.4795 17.0303 13.889 17.1602C14.5646 17.3749 15.1793 17.3446 15.6652 17.272C16.207 17.191 17.3336 16.5898 17.5686 15.9311C17.8036 15.2723 17.8036 14.7077 17.7331 14.5901C17.6626 14.4725 17.4746 14.4019 17.1926 14.2607ZM12.0474 21.2863H12.0436C10.3604 21.2857 8.70952 20.8335 7.26925 19.9788L6.92676 19.7755L3.37644 20.7068L4.32405 17.2453L4.10104 16.8904C3.16204 15.3969 2.66613 13.6708 2.66683 11.8983C2.66889 6.72631 6.87697 2.51856 12.0511 2.51856C14.5566 2.51942 16.9119 3.49647 18.6829 5.26954C20.454 7.04256 21.4287 9.39943 21.4278 11.9058C21.4257 17.0782 17.2176 21.2863 12.0474 21.2863ZM20.0309 3.92208C17.9001 1.78882 15.0665 0.613496 12.0473 0.612305C5.82671 0.612305 0.76383 5.67481 0.761341 11.8974C0.760529 13.8865 1.28019 15.8281 2.26785 17.5397L0.666748 23.3879L6.64958 21.8185C8.29803 22.7176 10.154 23.1915 12.0428 23.1922H12.0474C18.2674 23.1922 23.3309 18.1291 23.3334 11.9064C23.3345 8.89085 22.1617 6.05529 20.0309 3.92208Z" class="fill-1" fill="black"/>
</svg>
