<svg width="24" height="24" viewBox="0 0 24 24" xmlns="http://www.w3.org/2000/svg">
<path fill-rule="evenodd" clip-rule="evenodd" d="M6.66658 6V3.33333C6.66658 2.59695 7.26354 2 7.99992 2H16C16.7363 2 17.3333 2.59695 17.3333 3.33333V6H20.5641C21.1453 6 21.641 6.19959 22.0512 6.5988C22.4615 6.998 22.6666 7.46905 22.6666 8.01197V19.988C22.6666 20.5309 22.4615 21.002 22.0512 21.4012C21.641 21.8004 21.1453 22 20.5641 22H3.43581C2.85461 22 2.35889 21.8004 1.94864 21.4012C1.53838 21.002 1.33325 20.5309 1.33325 19.988V8.01197C1.33325 7.46905 1.53838 6.998 1.94864 6.5988C2.35889 6.19959 2.85461 6 3.43581 6H6.66658ZM8.53325 6V3.86666H15.4666V6H8.53325ZM3.43581 7.86666C3.36308 7.86666 3.33286 7.87824 3.32533 7.88127C3.31833 7.88409 3.29406 7.89417 3.25042 7.93663C3.22377 7.96256 3.20979 7.98055 3.20351 7.98942L3.20065 7.99361C3.20029 7.99745 3.19992 8.00347 3.19992 8.01197V11.4874L10.6666 13.6189V12.6667H13.3333V13.6199L20.8 11.4884V8.01197C20.8 8.0075 20.7999 8.00371 20.7997 8.00057C20.7996 7.99774 20.7992 7.99361 20.7992 7.99361L20.7964 7.98942C20.7901 7.98055 20.7761 7.96256 20.7495 7.93663C20.7058 7.89417 20.6816 7.88409 20.6746 7.88127C20.667 7.87824 20.6368 7.86666 20.5641 7.86666H3.43581ZM20.8 13.3537L13.3333 15.4864V16C13.3333 16.7364 12.7363 17.3333 12 17.3333C11.2635 17.3333 10.6666 16.7364 10.6666 16V15.4854L3.19992 13.3528V19.988C3.19992 19.9965 3.20029 20.0025 3.20065 20.0064L3.20351 20.0106C3.20979 20.0194 3.22377 20.0374 3.25042 20.0634C3.29406 20.1058 3.31833 20.1159 3.32533 20.1187C3.33286 20.1218 3.36308 20.1333 3.43581 20.1333H20.5641C20.6368 20.1333 20.667 20.1218 20.6746 20.1187C20.6816 20.1159 20.7058 20.1058 20.7495 20.0634C20.7761 20.0374 20.7901 20.0194 20.7964 20.0106L20.7992 20.0064C20.7996 20.0025 20.8 19.9965 20.8 19.988V13.3537Z" class="fill-1" fill="black"/>
</svg>
