<svg width="24" height="24" viewBox="0 0 24 24" xmlns="http://www.w3.org/2000/svg">
<path d="M21.76 6.07984C21.1813 5.0505 20.5533 4.86117 19.2746 4.78917C17.9973 4.7025 14.7853 4.6665 12.0026 4.6665C9.21458 4.6665 6.00125 4.7025 4.72525 4.78784C3.44925 4.86117 2.81992 5.04917 2.23592 6.07984C1.63992 7.10784 1.33325 8.8785 1.33325 11.9958C1.33325 11.9985 1.33325 11.9998 1.33325 11.9998C1.33325 12.0025 1.33325 12.0038 1.33325 12.0038V12.0065C1.33325 15.1105 1.63992 16.8945 2.23592 17.9118C2.81992 18.9412 3.44792 19.1278 4.72392 19.2145C6.00125 19.2892 9.21458 19.3332 12.0026 19.3332C14.7853 19.3332 17.9973 19.2892 19.276 19.2158C20.5546 19.1292 21.1826 18.9425 21.7613 17.9132C22.3626 16.8958 22.6666 15.1118 22.6666 12.0078C22.6666 12.0078 22.6666 12.0038 22.6666 12.0012V11.9972C22.6666 8.8785 22.3626 7.10784 21.76 6.07984ZM9.33325 15.9998V7.99984L16 11.9998L9.33325 15.9998Z" class="fill-1" fill="black"/>
</svg>
