<svg width="160" height="55" viewBox="0 0 160 55" fill="none" xmlns="http://www.w3.org/2000/svg">
<g clip-path="url(#clip0_179_18)">
<rect width="30" height="10" fill="#C5C5C5"/>
<rect x="35" width="47" height="10" fill="#C5C5C5"/>
<rect y="15" width="49" height="10" fill="#C5C5C5" fill-opacity="0.4"/>
<rect x="54" y="15" width="18" height="10" fill="#C5C5C5" fill-opacity="0.4"/>
<rect x="87" width="19" height="10" fill="#A3A3A3"/>
<rect x="111" width="27" height="10" fill="#C5C5C5" fill-opacity="0.4"/>
<rect x="143" width="17" height="10" fill="#C5C5C5" fill-opacity="0.4"/>
<path d="M0 54V38L11 46L0 54Z" fill="#C5C5C5"/>
<path d="M141.229 47.052C141.229 49.558 139.325 51.126 137.309 51.126C135.265 51.126 133.753 49.894 133.753 47.36C133.753 44.854 135.643 43.286 137.673 43.286C139.717 43.286 141.229 44.518 141.229 47.052ZM139.815 47.206C139.815 45.498 139.073 44.112 137.407 44.112C135.965 44.112 135.153 45.274 135.153 47.206C135.153 48.914 135.895 50.3 137.575 50.3C139.017 50.3 139.815 49.138 139.815 47.206ZM145.048 46.1C145.048 46.59 144.67 46.968 144.18 46.968C143.676 46.968 143.298 46.59 143.298 46.1C143.298 45.596 143.676 45.218 144.18 45.218C144.67 45.218 145.048 45.596 145.048 46.1ZM145.048 50.244C145.048 50.748 144.67 51.126 144.18 51.126C143.676 51.126 143.298 50.748 143.298 50.244C143.298 49.74 143.676 49.376 144.18 49.376C144.67 49.376 145.048 49.74 145.048 50.244ZM152.448 48.732L152.35 51H146.932V50.286L148.99 48.368C150.04 47.388 150.712 46.422 150.712 45.526C150.712 44.588 150.25 44.014 149.2 44.014C148.822 44.014 148.542 44.112 148.262 44.308C148.164 44.7 147.968 45.204 147.702 45.624H147.184L147.268 43.706C147.954 43.426 148.682 43.286 149.48 43.286C151.328 43.286 152.112 44.154 152.112 45.372C152.112 46.408 151.328 47.374 149.998 48.494L148.29 50.006V50.02H151.37C151.468 49.712 151.65 49.208 151.902 48.732H152.448ZM159.339 48.732L159.241 51H153.823V50.286L155.881 48.368C156.931 47.388 157.603 46.422 157.603 45.526C157.603 44.588 157.141 44.014 156.091 44.014C155.713 44.014 155.433 44.112 155.153 44.308C155.055 44.7 154.859 45.204 154.593 45.624H154.075L154.159 43.706C154.845 43.426 155.573 43.286 156.371 43.286C158.219 43.286 159.003 44.154 159.003 45.372C159.003 46.408 158.219 47.374 156.889 48.494L155.181 50.006V50.02H158.261C158.359 49.712 158.541 49.208 158.793 48.732H159.339Z" fill="black"/>
<line x1="19" y1="46" x2="125" y2="46" stroke="#C5C5C5" stroke-opacity="0.4" stroke-width="2"/>
<line x1="19" y1="46" x2="65" y2="46" stroke="#C5C5C5" stroke-width="2"/>
</g>
<defs>
<clipPath id="clip0_179_18">
<rect width="160" height="55" fill="white"/>
</clipPath>
</defs>
</svg>
